<svg xmlns="http://www.w3.org/2000/svg" xmlns:xlink="http://www.w3.org/1999/xlink" viewBox="0,0,256,256" width="50px" height="50px" fill-rule="nonzero"><g fill="#ffffff" fill-rule="nonzero" stroke="none" stroke-width="1" stroke-linecap="butt" stroke-linejoin="miter" stroke-miterlimit="10" stroke-dasharray="" stroke-dashoffset="0" font-family="none" font-weight="none" font-size="none" text-anchor="none" style="mix-blend-mode: normal"><g transform="scale(5.12,5.12)"><path d="M25,2c-12.69071,0 -23,10.3093 -23,23c0,12.6907 10.30929,23 23,23c12.69071,0 23,-10.3093 23,-23c0,-12.6907 -10.30929,-23 -23,-23zM25,4c11.60983,0 21,9.39017 21,21c0,11.60983 -9.39017,21 -21,21c-11.60983,0 -21,-9.39017 -21,-21c0,-11.60982 9.39017,-21 21,-21zM28.38281,17.04492c-3.406,0 -5.21873,2.41133 -6.17773,4.98633c0,0 -2.42509,6.28345 -2.62109,6.81445c-0.012,-0.497 -0.36914,-6.74414 -0.36914,-6.74414c-0.208,-3.141 -3.07353,-5.04687 -5.39453,-5.04687l2.79492,17.04492c3.568,-0.012 5.48523,-2.42528 6.49023,-4.98828c0,0 2.13552,-5.54287 2.22852,-5.79687c0.023,0.242 1.53516,10.78516 1.53516,10.78516c3.568,0 5.49711,-2.26337 6.53711,-4.73437l4.98828,-12.32031c-3.533,0 -5.39161,2.41133 -6.34961,4.98633c0,0 -1.99844,6.26002 -2.14844,6.79102c-0.058,-0.531 -1.51367,-11.77734 -1.51367,-11.77734z"></path></g></g></svg>